<svg width="186" height="186" viewBox="0 0 186 186" fill="none" xmlns="http://www.w3.org/2000/svg">
<g clip-path="url(#clip0_24_16)">
<path opacity="0.6" d="M73.4475 8.08919L8.10707 73.4296C-2.69667 84.2334 -2.69667 101.75 8.10707 112.553L73.4475 177.894C84.2512 188.698 101.768 188.698 112.571 177.894L177.912 112.553C188.716 101.75 188.715 84.2334 177.912 73.4296L112.571 8.08919C101.768 -2.71456 84.2513 -2.71456 73.4475 8.08919Z" fill="#6CEEC7"/>
<g opacity="0.8">
<path opacity="0.8" d="M39.8682 173.926C38.7059 173.931 37.5542 173.705 36.4801 173.261C35.4059 172.818 34.4307 172.165 33.6113 171.34L14.5563 152.285C13.7339 151.464 13.0814 150.489 12.6363 149.415C12.1912 148.341 11.962 147.191 11.962 146.028C11.962 144.866 12.1912 143.715 12.6363 142.642C13.0814 141.568 13.7339 140.593 14.5563 139.771L33.6113 120.716C34.4326 119.894 35.4079 119.242 36.4815 118.796C37.5551 118.351 38.7059 118.122 39.8682 118.122C41.0304 118.122 42.1813 118.351 43.2549 118.796C44.3285 119.242 45.3038 119.894 46.1251 120.716L65.1801 139.771C66.0025 140.593 66.655 141.568 67.1001 142.642C67.5453 143.715 67.7744 144.866 67.7744 146.028C67.7744 147.191 67.5453 148.341 67.1001 149.415C66.655 150.489 66.0025 151.464 65.1801 152.285L46.1251 171.34C45.3057 172.165 44.3305 172.818 43.2564 173.261C42.1822 173.705 41.0304 173.931 39.8682 173.926ZM39.8682 119.63C38.9088 119.624 37.9576 119.807 37.0699 120.171C36.1822 120.535 35.3756 121.072 34.6972 121.751L15.6422 140.806C14.2717 142.178 13.502 144.037 13.502 145.977C13.502 147.916 14.2717 149.776 15.6422 151.148L34.6972 170.203C36.0692 171.573 37.929 172.343 39.8682 172.343C41.8073 172.343 43.6672 171.573 45.0392 170.203L64.0942 151.148C65.4647 149.776 66.2344 147.916 66.2344 145.977C66.2344 144.037 65.4647 142.178 64.0942 140.806L45.0392 121.751C44.3565 121.081 43.5481 120.554 42.6606 120.199C41.773 119.844 40.824 119.669 39.8682 119.682V119.63Z" fill="#6CEEC7"/>
</g>
</g>
<defs>
<clipPath id="clip0_24_16">
<rect width="186" height="186" fill="white"/>
</clipPath>
</defs>
</svg>
