<svg width="190" height="48" viewBox="0 0 190 48" fill="none" xmlns="http://www.w3.org/2000/svg">
<path d="M58.7489 32.377C58.5678 32.8684 58.3867 33.3597 58.3528 33.8626C58.2891 34.8381 58.4292 35.8395 58.6074 36.815C58.6828 37.3024 58.7783 37.7877 58.8739 38.273C59.1174 39.5101 59.361 40.747 59.2695 42.0174C59.1549 43.487 58.6966 44.8397 57.3215 45.503C56.5703 45.8671 55.6154 46.0752 54.8132 45.9582C53.349 45.7631 51.8976 45.3599 50.5098 44.8657C49.1474 44.3715 47.9124 44.5405 46.5755 44.9957C39.6237 47.3758 32.5064 48.5464 25.1599 47.753C21.6331 47.3758 18.1572 46.6605 14.7704 45.581C14.4265 45.4712 14.0826 45.3496 13.7377 45.2276C13.0611 44.9883 12.3808 44.7476 11.6892 44.5926C11.1036 44.4625 10.4288 44.5275 9.83034 44.6706C9.18144 44.826 8.54062 45.0164 7.90064 45.2065C6.93329 45.4939 5.96786 45.7808 4.97937 45.9452C2.33107 46.3874 0.574028 44.9047 0.332116 42.1865C0.192062 40.5347 0.459438 38.935 0.93053 37.3742C1.26157 36.2947 2.20375 35.7225 3.05681 35.9826C3.97353 36.2687 4.54648 37.3352 4.36823 38.3757C4.32685 38.6163 4.28387 38.8569 4.2409 39.0975C4.11199 39.8194 3.98308 40.5412 3.89713 41.263C3.78254 42.2255 4.06265 42.4726 4.97937 42.2255C6.16347 41.9003 7.34756 41.5752 8.51893 41.185C10.3014 40.5997 11.9948 40.7818 13.7901 41.3411C16.7439 42.2645 19.7487 43.0579 22.779 43.6691C26.4841 44.3975 30.2528 44.4755 33.9961 44.0723C37.0518 43.7472 40.0693 43.1359 43.0232 42.2385C43.6054 42.0589 44.1853 41.8624 44.7658 41.6657C45.531 41.4064 46.2974 41.1467 47.0721 40.9249C48.3453 40.5607 49.6312 40.7688 50.8917 41.133C51.3043 41.2553 51.7153 41.3808 52.1259 41.5062C52.8936 41.7406 53.6598 41.9746 54.4313 42.1865C55.5262 42.4986 55.7809 42.3165 55.679 41.185C55.6216 40.5654 55.5062 39.9511 55.3905 39.3353C55.3265 38.9946 55.2624 38.6535 55.2079 38.3107C55.0297 37.2182 54.8514 36.1257 54.7114 35.0332C54.5493 33.771 54.919 32.6076 55.2885 31.4447C55.3835 31.1457 55.4785 30.8467 55.5644 30.5461C56.4684 27.3726 56.8886 24.1341 56.2902 20.8566C55.9719 19.1268 55.5008 17.41 54.9915 15.7193C54.4822 14.0025 54.7368 12.3247 55.0042 10.6339C55.0831 10.1413 55.1703 9.6521 55.2574 9.16385C55.4095 8.31153 55.5611 7.46205 55.6663 6.60207C55.7682 5.78269 55.5135 5.56159 54.6986 5.75668C54.1372 5.88736 53.5837 6.05451 53.0292 6.22194C52.5904 6.35446 52.151 6.48715 51.7066 6.60207C51.5278 6.65094 51.349 6.70236 51.1701 6.7538C50.4445 6.96247 49.7173 7.17161 48.9819 7.21335C48.1416 7.25237 47.263 7.05728 46.4354 6.83618C45.3901 6.56201 44.35 6.25761 43.31 5.95322C41.5378 5.43455 39.7658 4.91595 37.9685 4.54712C33.7287 3.67572 29.4507 3.44161 25.1217 3.98787C20.7546 4.53412 16.5529 5.66564 12.415 7.05728C11.7911 7.26537 11.0526 7.3304 10.416 7.20034C8.79903 6.86219 7.20751 6.41999 5.62872 5.93876C3.97353 5.43153 3.68069 5.65263 3.97353 7.42145C4.08223 8.08238 4.19514 8.74117 4.30798 9.39956C4.4727 10.3606 4.63727 11.3209 4.78839 12.2857C5.00484 13.6643 4.78839 14.9649 4.3173 16.2915C3.33692 19.0488 3.29872 21.8321 4.33003 24.6154C4.9921 26.3972 5.95975 28.0099 7.19478 29.4016C9.06641 31.5215 11.3582 33.0693 14.0574 33.8626C14.9487 34.1227 15.8626 34.3019 16.7765 34.4811C17.2334 34.5707 17.6904 34.6603 18.1445 34.76C18.1227 34.7675 18.0995 34.7758 18.0751 34.7846C17.9717 34.8219 17.848 34.8666 17.7243 34.8771C14.3757 35.2673 11.1036 35.0332 8.0351 33.4724C4.94118 31.8987 2.75124 29.4666 1.28703 26.2801C-0.355423 22.7035 -0.342691 19.0358 0.854136 15.3941C1.39229 13.7767 1.11448 12.2795 0.834362 10.7699C0.769859 10.4223 0.705233 10.0741 0.650421 9.72351C0.624771 9.55844 0.598216 9.39336 0.571656 9.22825C0.334531 7.75421 0.0968953 6.277 0.497635 4.76822C0.943262 3.12947 2.17829 1.99795 3.8844 2.02396C4.93156 2.048 5.97873 2.28306 7.0058 2.51362C7.09015 2.53255 7.17437 2.55146 7.25844 2.57021C8.25155 2.79131 9.2192 3.09045 10.1741 3.45462C10.8115 3.70264 11.3684 3.52368 11.9344 3.34182C12.0807 3.2948 12.2277 3.24759 12.3768 3.20751C13.2846 2.96021 14.1886 2.69724 15.0924 2.43433C17.0407 1.8676 18.988 1.30112 20.971 0.89244C25.6183 -0.056997 30.3292 -0.265093 35.0783 0.346189C39.2036 0.879434 43.2142 1.78985 47.123 3.20751C48.2816 3.6367 49.3257 3.50664 50.4334 3.16849C50.6977 3.0859 50.9627 3.00099 51.2285 2.91584C52.0512 2.65231 52.8811 2.38646 53.7183 2.18003C54.8642 1.8939 56.0355 1.82887 57.1432 2.37512C58.5565 3.07745 59.1422 4.35203 59.2313 5.83472C59.2822 6.86219 59.1422 7.90267 59.0021 8.93014C58.9254 9.49571 58.818 10.0613 58.7103 10.6279C58.568 11.3773 58.4253 12.1285 58.3528 12.884C58.2817 13.5617 58.4422 14.262 58.5982 14.9429C58.6098 14.9937 58.6214 15.0444 58.6329 15.095C58.7888 15.77 58.9629 16.442 59.1375 17.1154C59.3194 17.8172 59.5018 18.5207 59.6642 19.2309C59.7279 19.491 59.6133 19.8422 59.4605 20.0633C58.9894 20.7916 58.9894 21.2858 59.6642 21.8061C60.0334 22.0922 60.1226 22.4304 60.148 22.8596C60.2881 25.8509 59.8297 28.7773 59.0021 31.6386C58.93 31.8857 58.8394 32.1314 58.7489 32.377Z" fill="white"/>
<path d="M36.4534 19.7641L36.759 21.9491C36.8608 22.6515 37.281 23.0156 37.9431 23.1067L37.9936 23.1144C38.9067 23.255 39.8315 23.3973 40.7441 23.6399C40.4513 23.6876 40.1585 23.7396 39.8656 23.7917C39.2799 23.8957 38.6943 23.9997 38.1086 24.0691C37.2173 24.1862 36.8736 24.4723 36.7335 25.3827C36.6553 25.8978 36.5889 26.4068 36.5222 26.9181C36.4913 27.1555 36.4602 27.3935 36.4279 27.6328C36.4152 27.7758 36.3515 27.9059 36.1733 28.0359C36.1351 27.8539 36.1096 27.6848 36.0842 27.5157C36.0442 27.2439 36.0074 26.9706 35.9705 26.6962C35.9013 26.1827 35.8317 25.6657 35.7404 25.1486C35.6258 24.4853 35.2184 24.1732 34.569 24.0821C33.9494 24.0041 33.3298 23.9029 32.7101 23.8018C32.4003 23.7512 32.0905 23.7006 31.7807 23.6529V23.5359C32.239 23.4643 32.6942 23.3961 33.1494 23.3278C33.6046 23.2595 34.0597 23.1912 34.5181 23.1197C35.3584 22.9896 35.6513 22.7035 35.7913 21.8451C35.8696 21.33 35.9359 20.8209 36.0026 20.3096C36.0336 20.0722 36.0646 19.8343 36.0969 19.5951C36.1224 19.465 36.1606 19.3349 36.3515 19.1919C36.357 19.2199 36.3625 19.2477 36.368 19.2753C36.4005 19.4396 36.4316 19.5971 36.4534 19.7641Z" fill="white"/>
<path d="M42.8351 18.4766C42.7955 18.1818 42.7558 17.887 42.7049 17.5921C42.6412 17.215 42.4121 17.0459 42.0301 16.9939C41.6903 16.9515 41.3559 16.8982 41.0198 16.8445C40.8396 16.8158 40.659 16.787 40.4768 16.7597V16.6947L42.0046 16.4606C42.4757 16.3956 42.6412 16.2395 42.7176 15.7583C42.7495 15.5502 42.7749 15.3421 42.8004 15.134C42.8259 14.9259 42.8513 14.7178 42.8832 14.5097C42.8959 14.4447 42.9214 14.3666 43.0232 14.2886C43.0487 14.3927 43.0741 14.4967 43.0869 14.6008C43.1378 15.0169 43.1887 15.4201 43.2524 15.8233C43.3161 16.2135 43.5452 16.4216 43.9145 16.4736C44.4365 16.5516 44.9585 16.6297 45.4805 16.7728C45.3277 16.7974 45.175 16.8233 45.0218 16.8493C44.6899 16.9057 44.3561 16.9624 44.0163 17.0069C43.5198 17.0719 43.3288 17.228 43.2524 17.7352C43.2015 18.1514 43.1505 18.5676 43.0869 18.9838C43.0741 19.0618 43.0487 19.1268 42.9468 19.2049C42.9242 19.1238 42.9116 19.0325 42.9001 18.9492C42.8987 18.9389 42.8973 18.9288 42.8959 18.9187C42.8747 18.7714 42.8549 18.624 42.8351 18.4766Z" fill="white"/>
<path d="M127.183 31.5231C127.895 31.8947 128.773 32.0806 129.816 32.0806H131.928C132.102 32.0806 132.25 32.0186 132.372 31.8947C132.493 31.7708 132.554 31.6204 132.554 31.4434V29.7974C132.554 29.6204 132.493 29.47 132.372 29.3461C132.25 29.2222 132.102 29.1602 131.928 29.1602H130.129C129.503 29.1602 129.06 28.9567 128.799 28.5496C128.556 28.1425 128.434 27.5761 128.434 26.8505V21.0894H131.694C131.868 21.0894 132.015 21.0274 132.137 20.9035C132.259 20.7796 132.319 20.6203 132.319 20.4256V18.9124C132.319 18.7354 132.259 18.5849 132.137 18.461C132.015 18.3371 131.868 18.2752 131.694 18.2752H128.434V13.8681C128.434 13.6911 128.373 13.5407 128.252 13.4168C128.13 13.2929 127.982 13.2309 127.809 13.2309H125.696C125.505 13.2309 125.349 13.2929 125.227 13.4168C125.123 13.5407 125.071 13.6911 125.071 13.8681V18.2752H123.011C122.837 18.2752 122.689 18.3371 122.568 18.461C122.446 18.5849 122.385 18.7354 122.385 18.9124V20.4256C122.385 20.6203 122.446 20.7796 122.568 20.9035C122.689 21.0274 122.837 21.0894 123.011 21.0894H125.071V27.116C125.071 28.2133 125.245 29.1337 125.592 29.877C125.94 30.6027 126.47 31.1514 127.183 31.5231Z" fill="white"/>
<path fill-rule="evenodd" clip-rule="evenodd" d="M77.433 31.8947C77.5547 32.0186 77.7025 32.0806 77.8763 32.0806H85.6466C87.0024 32.0806 88.141 31.8505 89.0623 31.3903C89.9836 30.9124 90.679 30.2576 91.1483 29.4257C91.6177 28.5938 91.8523 27.6469 91.8523 26.585C91.8523 25.5584 91.5916 24.6735 91.0701 23.9301C90.5486 23.1867 89.9489 22.6558 89.2709 22.3372C89.6012 22.1602 89.9315 21.9124 90.2618 21.5938C90.6094 21.2752 90.8963 20.8681 91.1222 20.3726C91.3656 19.8593 91.4873 19.2664 91.4873 18.5938C91.4873 17.5849 91.27 16.7 90.8354 15.9389C90.4182 15.1778 89.7664 14.5849 88.8798 14.1601C87.9933 13.7176 86.846 13.4964 85.438 13.4964H77.8763C77.7025 13.4964 77.5547 13.5584 77.433 13.6822C77.3113 13.8061 77.2505 13.9654 77.2505 14.1601V31.4434C77.2505 31.6204 77.3113 31.7708 77.433 31.8947ZM85.2294 29.2664H80.8749V23.877H85.2294C86.1507 23.877 86.8547 24.1336 87.3414 24.6469C87.8455 25.1602 88.0976 25.8062 88.0976 26.585C88.0976 27.3283 87.8542 27.9655 87.3675 28.4965C86.8808 29.0098 86.168 29.2664 85.2294 29.2664ZM84.9686 21.1159H80.8749V16.284H84.9686C85.8899 16.284 86.5765 16.4964 87.0285 16.9212C87.4979 17.346 87.7325 17.9301 87.7325 18.6734C87.7325 19.3991 87.4979 19.992 87.0285 20.4522C86.5765 20.8947 85.8899 21.1159 84.9686 21.1159Z" fill="white"/>
<path fill-rule="evenodd" clip-rule="evenodd" d="M96.0646 30.6469C97.1945 31.7797 98.7242 32.3461 100.654 32.3461C101.627 32.3461 102.488 32.2222 103.235 31.9744C104 31.7089 104.635 31.3815 105.139 30.9921C105.643 30.6027 106.025 30.2045 106.286 29.7974C106.564 29.3903 106.712 29.0452 106.729 28.762C106.747 28.6027 106.694 28.4699 106.573 28.3637C106.468 28.2576 106.329 28.2045 106.156 28.2045H103.913C103.722 28.2045 103.574 28.231 103.47 28.2841C103.383 28.3195 103.261 28.4434 103.105 28.6558C103.018 28.7797 102.87 28.939 102.662 29.1337C102.453 29.3284 102.183 29.5053 101.853 29.6646C101.523 29.8062 101.114 29.877 100.628 29.877C100.037 29.877 99.5239 29.7177 99.0893 29.3992C98.6721 29.0806 98.3505 28.6646 98.1245 28.1514C97.9159 27.6204 97.8029 27.0452 97.7856 26.4257V26.2133H106.442C106.634 26.2133 106.79 26.1513 106.912 26.0275C107.033 25.9036 107.094 25.7531 107.094 25.5761V25.0186C107.094 23.6381 106.851 22.4257 106.364 21.3814C105.877 20.3195 105.156 19.4964 104.2 18.9124C103.244 18.3106 102.062 18.0097 100.654 18.0097C99.3848 18.0097 98.281 18.2752 97.3423 18.8062C96.4036 19.3194 95.6648 20.0628 95.1259 21.0363C94.6044 21.992 94.3089 23.1425 94.2394 24.4876C94.222 24.6469 94.2133 24.8682 94.2133 25.1513C94.2133 25.4168 94.222 25.6381 94.2394 25.8151C94.3263 27.9036 94.9347 29.5142 96.0646 30.6469ZM103.548 23.9832H97.7856V23.9035C97.7856 23.2133 97.8899 22.6115 98.0984 22.0982C98.3244 21.5672 98.6547 21.1602 99.0893 20.877C99.5239 20.5761 100.045 20.4256 100.654 20.4256C101.262 20.4256 101.784 20.5761 102.218 20.877C102.653 21.1602 102.983 21.5672 103.209 22.0982C103.435 22.6115 103.548 23.2133 103.548 23.9035V23.9832Z" fill="white"/>
<path d="M114.999 32.3461C113.956 32.3461 113.061 32.2222 112.313 31.9744C111.583 31.7266 110.983 31.4169 110.514 31.0452C110.045 30.6735 109.697 30.3018 109.471 29.9301C109.245 29.5584 109.123 29.2487 109.106 29.0009C109.088 28.8062 109.141 28.6558 109.262 28.5496C109.401 28.4257 109.549 28.3637 109.706 28.3637H111.765C111.835 28.3637 111.896 28.3726 111.948 28.3903C112 28.408 112.07 28.4611 112.157 28.5496C112.383 28.7443 112.617 28.9478 112.861 29.1602C113.121 29.3726 113.426 29.5584 113.773 29.7177C114.121 29.8593 114.555 29.9301 115.077 29.9301C115.755 29.9301 116.32 29.7974 116.772 29.5319C117.241 29.2487 117.476 28.8505 117.476 28.3372C117.476 27.9655 117.372 27.6646 117.163 27.4345C116.972 27.2045 116.607 27.0009 116.068 26.8239C115.529 26.6292 114.764 26.4257 113.773 26.2133C112.8 25.9832 111.991 25.6912 111.348 25.3372C110.705 24.9832 110.227 24.5407 109.914 24.0097C109.601 23.4788 109.445 22.8593 109.445 22.1513C109.445 21.4611 109.645 20.8062 110.045 20.1867C110.462 19.5495 111.07 19.0274 111.87 18.6203C112.687 18.2132 113.695 18.0097 114.894 18.0097C115.833 18.0097 116.65 18.1336 117.345 18.3814C118.041 18.6115 118.614 18.9035 119.066 19.2575C119.536 19.6115 119.892 19.9743 120.135 20.346C120.379 20.7 120.509 21.0097 120.527 21.2752C120.544 21.4699 120.492 21.6292 120.37 21.7531C120.248 21.8593 120.109 21.9124 119.953 21.9124H118.023C117.936 21.9124 117.858 21.8947 117.789 21.8593C117.719 21.8239 117.65 21.7796 117.58 21.7265C117.389 21.5495 117.18 21.3637 116.954 21.169C116.728 20.9566 116.45 20.7796 116.12 20.638C115.807 20.4964 115.39 20.4256 114.868 20.4256C114.208 20.4256 113.704 20.5761 113.356 20.877C113.008 21.1602 112.835 21.523 112.835 21.9655C112.835 22.2664 112.913 22.5319 113.069 22.7619C113.243 22.9743 113.582 23.1779 114.086 23.3726C114.59 23.5673 115.355 23.7708 116.381 23.9832C117.545 24.1956 118.467 24.5142 119.145 24.9389C119.84 25.346 120.327 25.8239 120.605 26.3726C120.9 26.9036 121.048 27.4965 121.048 28.1514C121.048 28.9478 120.813 29.6646 120.344 30.3018C119.892 30.939 119.214 31.4434 118.31 31.8151C117.424 32.1691 116.32 32.3461 114.999 32.3461Z" fill="white"/>
<path fill-rule="evenodd" clip-rule="evenodd" d="M135.806 32.0806C135.632 32.0806 135.484 32.0186 135.363 31.8947C135.241 31.7708 135.18 31.6204 135.18 31.4434V14.1601C135.18 13.9654 135.241 13.8061 135.363 13.6822C135.484 13.5584 135.632 13.4964 135.806 13.4964H142.559C144.663 13.4964 146.323 13.992 147.54 14.9831C148.756 15.9743 149.365 17.4168 149.365 19.3106C149.365 20.6203 149.043 21.7088 148.4 22.5761C147.774 23.4434 146.931 24.0717 145.871 24.4611L149.678 31.231C149.73 31.3372 149.756 31.4346 149.756 31.5231C149.756 31.6824 149.695 31.8151 149.573 31.9213C149.469 32.0275 149.347 32.0806 149.208 32.0806H146.836C146.54 32.0806 146.314 32.0009 146.158 31.8416C146.001 31.6824 145.879 31.5231 145.793 31.3638L142.429 25.0717H138.805V31.4434C138.805 31.6204 138.744 31.7708 138.622 31.8947C138.518 32.0186 138.37 32.0806 138.179 32.0806H135.806ZM138.805 22.0717H142.481C143.541 22.0717 144.332 21.8327 144.854 21.3549C145.375 20.8593 145.636 20.169 145.636 19.284C145.636 18.3991 145.375 17.7088 144.854 17.2132C144.35 16.7 143.559 16.4433 142.481 16.4433H138.805V22.0717Z" fill="white"/>
<path fill-rule="evenodd" clip-rule="evenodd" d="M153.51 30.6469C154.64 31.7797 156.17 32.3461 158.1 32.3461C159.073 32.3461 159.934 32.2222 160.681 31.9744C161.446 31.7089 162.08 31.3815 162.584 30.9921C163.089 30.6027 163.471 30.2045 163.732 29.7974C164.01 29.3903 164.158 29.0452 164.175 28.762C164.192 28.6027 164.14 28.4699 164.019 28.3637C163.914 28.2576 163.775 28.2045 163.601 28.2045H161.359C161.168 28.2045 161.02 28.231 160.916 28.2841C160.829 28.3195 160.707 28.4434 160.551 28.6558C160.464 28.7797 160.316 28.939 160.107 29.1337C159.899 29.3284 159.629 29.5053 159.299 29.6646C158.969 29.8062 158.56 29.877 158.074 29.877C157.483 29.877 156.97 29.7177 156.535 29.3992C156.118 29.0806 155.796 28.6646 155.57 28.1514C155.362 27.6204 155.249 27.0452 155.231 26.4257V26.2133H163.888C164.079 26.2133 164.236 26.1513 164.358 26.0275C164.479 25.9036 164.54 25.7531 164.54 25.5761V25.0186C164.54 23.6381 164.297 22.4257 163.81 21.3814C163.323 20.3195 162.602 19.4964 161.646 18.9124C160.69 18.3106 159.508 18.0097 158.1 18.0097C156.831 18.0097 155.727 18.2752 154.788 18.8062C153.849 19.3194 153.111 20.0628 152.572 21.0363C152.05 21.992 151.755 23.1425 151.685 24.4876C151.668 24.6469 151.659 24.8682 151.659 25.1513C151.659 25.4168 151.668 25.6381 151.685 25.8151C151.772 27.9036 152.381 29.5142 153.51 30.6469ZM160.994 23.9832H155.231V23.9035C155.231 23.2133 155.336 22.6115 155.544 22.0982C155.77 21.5672 156.101 21.1602 156.535 20.877C156.97 20.5761 157.491 20.4256 158.1 20.4256C158.708 20.4256 159.23 20.5761 159.664 20.877C160.099 21.1602 160.429 21.5672 160.655 22.0982C160.881 22.6115 160.994 23.2133 160.994 23.9035V23.9832Z" fill="white"/>
<path d="M172.445 32.3461C171.402 32.3461 170.506 32.2222 169.759 31.9744C169.029 31.7266 168.429 31.4169 167.96 31.0452C167.49 30.6735 167.143 30.3018 166.917 29.9301C166.691 29.5584 166.569 29.2487 166.552 29.0009C166.534 28.8062 166.586 28.6558 166.708 28.5496C166.847 28.4257 166.995 28.3637 167.151 28.3637H169.211C169.281 28.3637 169.342 28.3726 169.394 28.3903C169.446 28.408 169.516 28.4611 169.602 28.5496C169.828 28.7443 170.063 28.9478 170.306 29.1602C170.567 29.3726 170.871 29.5584 171.219 29.7177C171.567 29.8593 172.001 29.9301 172.523 29.9301C173.201 29.9301 173.766 29.7974 174.218 29.5319C174.687 29.2487 174.922 28.8505 174.922 28.3372C174.922 27.9655 174.817 27.6646 174.609 27.4345C174.418 27.2045 174.053 27.0009 173.514 26.8239C172.975 26.6292 172.21 26.4257 171.219 26.2133C170.246 25.9832 169.437 25.6912 168.794 25.3372C168.151 24.9832 167.673 24.5407 167.36 24.0097C167.047 23.4788 166.891 22.8593 166.891 22.1513C166.891 21.4611 167.091 20.8062 167.49 20.1867C167.908 19.5495 168.516 19.0274 169.316 18.6203C170.133 18.2132 171.141 18.0097 172.34 18.0097C173.279 18.0097 174.096 18.1336 174.791 18.3814C175.487 18.6115 176.06 18.9035 176.512 19.2575C176.982 19.6115 177.338 19.9743 177.581 20.346C177.825 20.7 177.955 21.0097 177.972 21.2752C177.99 21.4699 177.938 21.6292 177.816 21.7531C177.694 21.8593 177.555 21.9124 177.399 21.9124H175.469C175.382 21.9124 175.304 21.8947 175.235 21.8593C175.165 21.8239 175.096 21.7796 175.026 21.7265C174.835 21.5495 174.626 21.3637 174.4 21.169C174.174 20.9566 173.896 20.7796 173.566 20.638C173.253 20.4964 172.836 20.4256 172.314 20.4256C171.654 20.4256 171.15 20.5761 170.802 20.877C170.454 21.1602 170.28 21.523 170.28 21.9655C170.28 22.2664 170.359 22.5319 170.515 22.7619C170.689 22.9743 171.028 23.1779 171.532 23.3726C172.036 23.5673 172.801 23.7708 173.827 23.9832C174.991 24.1956 175.913 24.5142 176.59 24.9389C177.286 25.346 177.773 25.8239 178.051 26.3726C178.346 26.9036 178.494 27.4965 178.494 28.1514C178.494 28.9478 178.259 29.6646 177.79 30.3018C177.338 30.939 176.66 31.4434 175.756 31.8151C174.87 32.1691 173.766 32.3461 172.445 32.3461Z" fill="white"/>
<path d="M184.629 31.5231C185.341 31.8947 186.219 32.0806 187.262 32.0806H189.374C189.548 32.0806 189.696 32.0186 189.817 31.8947C189.939 31.7708 190 31.6204 190 31.4434V29.7974C190 29.6204 189.939 29.47 189.817 29.3461C189.696 29.2222 189.548 29.1602 189.374 29.1602H187.575C186.949 29.1602 186.506 28.9567 186.245 28.5496C186.002 28.1425 185.88 27.5761 185.88 26.8505V21.0894H189.14C189.313 21.0894 189.461 21.0274 189.583 20.9035C189.704 20.7796 189.765 20.6203 189.765 20.4256V18.9124C189.765 18.7354 189.704 18.5849 189.583 18.461C189.461 18.3371 189.313 18.2752 189.14 18.2752H185.88V13.8681C185.88 13.6911 185.819 13.5407 185.698 13.4168C185.576 13.2929 185.428 13.2309 185.254 13.2309H183.142C182.951 13.2309 182.795 13.2929 182.673 13.4168C182.569 13.5407 182.517 13.6911 182.517 13.8681V18.2752H180.457C180.283 18.2752 180.135 18.3371 180.013 18.461C179.892 18.5849 179.831 18.7354 179.831 18.9124V20.4256C179.831 20.6203 179.892 20.7796 180.013 20.9035C180.135 21.0274 180.283 21.0894 180.457 21.0894H182.517V27.116C182.517 28.2133 182.69 29.1337 183.038 29.877C183.386 30.6027 183.916 31.1514 184.629 31.5231Z" fill="white"/>
</svg>
